<svg width="141" height="32" viewBox="0 0 141 32" fill="none" xmlns="http://www.w3.org/2000/svg">
<path d="M0.710227 31L5.53977 1.90909H17.017C19.214 1.90909 21.0227 2.29735 22.4432 3.07386C23.8731 3.85038 24.8769 4.9536 25.4545 6.38352C26.0417 7.80398 26.179 9.48011 25.8665 11.4119C25.5445 13.3437 24.8485 15.0009 23.7784 16.3835C22.7178 17.7661 21.3352 18.8314 19.6307 19.5795C17.9356 20.3182 15.9706 20.6875 13.7358 20.6875H6.05114L6.90341 15.7443H13.5795C14.7538 15.7443 15.7576 15.5833 16.5909 15.2614C17.4242 14.9394 18.0824 14.4564 18.5653 13.8125C19.0578 13.1686 19.3797 12.3684 19.5312 11.4119C19.6922 10.4366 19.6354 9.62216 19.3608 8.96875C19.0862 8.30587 18.589 7.80398 17.8693 7.46307C17.1496 7.11269 16.2027 6.9375 15.0284 6.9375H10.8807L6.8608 31H0.710227ZM18.608 17.7614L23.6506 31H16.8608L11.9744 17.7614H18.608ZM36.6158 31.4261C34.3809 31.4261 32.5296 30.9716 31.0618 30.0625C29.594 29.1439 28.5618 27.8466 27.9652 26.1705C27.3781 24.4848 27.2786 22.4915 27.6669 20.1903C28.0457 17.946 28.808 15.9763 29.9538 14.2812C31.1091 12.5862 32.558 11.2652 34.3004 10.3182C36.0429 9.37121 37.9841 8.89773 40.1243 8.89773C41.5637 8.89773 42.8658 9.12973 44.0305 9.59375C45.2048 10.0483 46.1802 10.7396 46.9567 11.6676C47.7332 12.5862 48.2635 13.7367 48.5476 15.1193C48.8411 16.5019 48.8364 18.1212 48.5334 19.9773L48.2635 21.6392H29.8544L30.4368 17.8892H43.1641C43.3061 17.018 43.2493 16.2462 42.9936 15.5739C42.7379 14.9015 42.3118 14.3759 41.7152 13.9972C41.1186 13.6089 40.3847 13.4148 39.5135 13.4148C38.6233 13.4148 37.79 13.6326 37.0135 14.0682C36.237 14.5038 35.5836 15.0767 35.0533 15.7869C34.5324 16.4877 34.1963 17.25 34.0447 18.0739L33.3771 21.7955C33.1877 22.9413 33.2256 23.893 33.4908 24.6506C33.7654 25.4081 34.2389 25.9763 34.9112 26.3551C35.5836 26.7244 36.4358 26.9091 37.468 26.9091C38.1404 26.9091 38.7701 26.8144 39.3572 26.625C39.9538 26.4356 40.4841 26.1562 40.9482 25.7869C41.4122 25.4081 41.791 24.9394 42.0845 24.3807L47.6101 24.75C47.0987 26.0947 46.3222 27.2689 45.2805 28.2727C44.2389 29.267 42.9841 30.0436 41.5163 30.6023C40.058 31.1515 38.4245 31.4261 36.6158 31.4261ZM61.5554 1.90909L56.7259 31H50.6747L55.5043 1.90909H61.5554ZM85.5504 9.18182L74.2862 31H67.468L63.4766 9.18182H69.6413L71.5732 24.7926H71.8004L78.9169 9.18182H85.5504ZM85.0107 31L88.647 9.18182H94.6982L91.0618 31H85.0107ZM92.2976 6.34091C91.398 6.34091 90.6546 6.04261 90.0675 5.44602C89.4898 4.83996 89.2531 4.12026 89.3572 3.28693C89.4614 2.43466 89.8686 1.71496 90.5788 1.12784C91.2891 0.531248 92.094 0.232953 92.9936 0.232953C93.8932 0.232953 94.6271 0.531248 95.1953 1.12784C95.7635 1.71496 96.0002 2.43466 95.9055 3.28693C95.8108 4.12026 95.4084 4.83996 94.6982 5.44602C93.9974 6.04261 93.1972 6.34091 92.2976 6.34091ZM116.634 15.4034L111.136 15.7443C111.108 15.2614 110.975 14.8305 110.739 14.4517C110.511 14.0634 110.175 13.7557 109.73 13.5284C109.295 13.3011 108.745 13.1875 108.082 13.1875C107.088 13.1875 106.203 13.4148 105.426 13.8693C104.65 14.3239 104.209 14.9062 104.105 15.6165C104.02 16.071 104.138 16.4545 104.46 16.767C104.782 17.0795 105.431 17.3447 106.406 17.5625L110.241 18.358C112.287 18.7936 113.764 19.518 114.673 20.5312C115.592 21.5445 115.919 22.8703 115.653 24.5085C115.417 25.9006 114.806 27.1174 113.821 28.1591C112.836 29.1913 111.586 29.9962 110.071 30.5739C108.556 31.142 106.875 31.4261 105.028 31.4261C102.064 31.4261 99.8106 30.8201 98.267 29.608C96.7235 28.3958 95.9801 26.7528 96.0369 24.679L101.946 24.3665C101.993 25.2566 102.306 25.929 102.884 26.3835C103.461 26.8286 104.252 27.0559 105.256 27.0653C106.383 27.0843 107.339 26.8523 108.125 26.3693C108.92 25.8769 109.37 25.2803 109.474 24.5795C109.55 24.0871 109.408 23.6894 109.048 23.3864C108.698 23.0833 108.054 22.8324 107.116 22.6335L103.48 21.8807C101.416 21.4545 99.9337 20.6922 99.0341 19.5938C98.1345 18.4953 97.8267 17.0985 98.1108 15.4034C98.3381 14.0492 98.9015 12.8892 99.8011 11.9233C100.71 10.9479 101.88 10.1998 103.31 9.67898C104.749 9.15814 106.373 8.89773 108.182 8.89773C111.013 8.89773 113.144 9.48011 114.574 10.6449C116.013 11.8097 116.7 13.3958 116.634 15.4034ZM128.256 31.4261C126.022 31.4261 124.17 30.9716 122.702 30.0625C121.235 29.1439 120.202 27.8466 119.606 26.1705C119.019 24.4848 118.919 22.4915 119.308 20.1903C119.686 17.946 120.449 15.9763 121.594 14.2812C122.75 12.5862 124.199 11.2652 125.941 10.3182C127.683 9.37121 129.625 8.89773 131.765 8.89773C133.204 8.89773 134.506 9.12973 135.671 9.59375C136.845 10.0483 137.821 10.7396 138.597 11.6676C139.374 12.5862 139.904 13.7367 140.188 15.1193C140.482 16.5019 140.477 18.1212 140.174 19.9773L139.904 21.6392H121.495L122.077 17.8892H134.805C134.947 17.018 134.89 16.2462 134.634 15.5739C134.379 14.9015 133.952 14.3759 133.356 13.9972C132.759 13.6089 132.025 13.4148 131.154 13.4148C130.264 13.4148 129.431 13.6326 128.654 14.0682C127.878 14.5038 127.224 15.0767 126.694 15.7869C126.173 16.4877 125.837 17.25 125.685 18.0739L125.018 21.7955C124.828 22.9413 124.866 23.893 125.131 24.6506C125.406 25.4081 125.879 25.9763 126.552 26.3551C127.224 26.7244 128.076 26.9091 129.109 26.9091C129.781 26.9091 130.411 26.8144 130.998 26.625C131.594 26.4356 132.125 26.1562 132.589 25.7869C133.053 25.4081 133.432 24.9394 133.725 24.3807L139.251 24.75C138.739 26.0947 137.963 27.2689 136.921 28.2727C135.879 29.267 134.625 30.0436 133.157 30.6023C131.699 31.1515 130.065 31.4261 128.256 31.4261Z" fill="black"/>
</svg>
